<svg width="26" height="24" viewBox="0 0 26 24" fill="none" xmlns="http://www.w3.org/2000/svg">
<path d="M1.99984 13.6002H20.976L15.1678 20.5762C15.0334 20.7379 14.9322 20.9247 14.8698 21.1255C14.8075 21.3264 14.7854 21.5378 14.8046 21.7472C14.8437 22.1702 15.0491 22.5605 15.376 22.8322C15.7027 23.1037 16.1238 23.2344 16.547 23.1954C16.9701 23.1563 17.3603 22.9509 17.632 22.6242L25.632 13.0242C25.6858 12.9477 25.7339 12.8675 25.776 12.7842C25.776 12.7042 25.856 12.6562 25.888 12.5762C25.9605 12.3927 25.9984 12.1975 26 12.0002C25.9984 11.8029 25.9605 11.6075 25.888 11.4242C25.888 11.3442 25.808 11.2962 25.776 11.2162C25.7339 11.1327 25.6858 11.0525 25.632 10.9762L17.632 1.37617C17.4814 1.19553 17.2931 1.05025 17.0802 0.950735C16.8672 0.851215 16.635 0.799695 16.4 0.800175C16.0261 0.799375 15.6638 0.929614 15.376 1.16817C15.2139 1.30241 15.08 1.46737 14.9818 1.65361C14.8837 1.83969 14.8232 2.04337 14.8038 2.25297C14.7845 2.46257 14.8067 2.67377 14.8693 2.87473C14.9317 3.07569 15.0331 3.26241 15.1678 3.42417L20.976 10.4002H1.99984C1.57552 10.4002 1.16864 10.5687 0.868481 10.8688C0.568481 11.1688 0.399841 11.5757 0.399841 12.0002C0.399841 12.4245 0.568481 12.8314 0.868481 13.1315C1.16864 13.4315 1.57552 13.6002 1.99984 13.6002Z" fill="white"/>
</svg>
