<svg width="107" height="60" viewBox="0 0 107 60" fill="none" xmlns="http://www.w3.org/2000/svg">
<path d="M40.9133 58.1971H89.2351C98.2967 58.1971 105.643 50.8513 105.643 41.7897C105.643 32.7281 98.2967 25.3823 89.2351 25.3823H40.9133C31.8517 25.3823 24.5059 32.7281 24.5059 41.7897C24.5059 50.8513 31.8517 58.1971 40.9133 58.1971Z" fill="#13171D"/>
<path d="M38.9549 55.2569C30.3967 55.2569 23.459 48.3191 23.459 39.761C23.459 31.2029 30.3967 24.2651 38.9549 24.2651H87.9407C96.4988 24.2651 103.437 31.2029 103.437 39.761C103.437 48.3191 96.4988 55.2569 87.9407 55.2569H38.9549Z" fill="white"/>
<path d="M47 46.2485V33.311H51.3097C51.9727 33.311 52.5902 33.3769 53.1622 33.5088C53.7343 33.6407 54.2283 33.8583 54.6443 34.1616C55.0603 34.4518 55.3853 34.8408 55.6193 35.3288C55.8663 35.8167 55.9898 36.4234 55.9898 37.1487C55.9898 38.1378 55.7558 38.9357 55.2878 39.5424C54.8328 40.149 54.2218 40.5842 53.4547 40.848L56.4969 46.2485H53.9618L51.2122 41.1843H49.2621V46.2485H47ZM49.2621 39.3643H51.0757C51.9467 39.3643 52.6097 39.1797 53.0647 38.8104C53.5327 38.4412 53.7668 37.8873 53.7668 37.1487C53.7668 36.397 53.5327 35.8761 53.0647 35.5859C52.6097 35.2958 51.9467 35.1507 51.0757 35.1507H49.2621V39.3643Z" fill="#090B37"/>
<path d="M58.3455 46.2486V36.5356H60.5881V46.2486H58.3455ZM59.4765 34.8343C59.0735 34.8343 58.742 34.7156 58.482 34.4782C58.222 34.2409 58.092 33.9309 58.092 33.5485C58.092 33.166 58.222 32.8561 58.482 32.6187C58.742 32.3682 59.0735 32.2429 59.4765 32.2429C59.8795 32.2429 60.211 32.3682 60.4711 32.6187C60.7311 32.8561 60.8611 33.166 60.8611 33.5485C60.8611 33.9309 60.7311 34.2409 60.4711 34.4782C60.211 34.7156 59.8795 34.8343 59.4765 34.8343Z" fill="#090B37"/>
<path d="M66.8033 46.4861C65.5943 46.4861 64.6322 46.0443 63.9172 45.1607C63.2152 44.2639 62.8642 43.011 62.8642 41.4021C62.8642 40.6108 62.9747 39.8986 63.1957 39.2656C63.4297 38.6326 63.7352 38.0985 64.1122 37.6633C64.4892 37.2281 64.9182 36.8918 65.3993 36.6544C65.8933 36.417 66.4003 36.2983 66.9203 36.2983C67.4663 36.2983 67.9279 36.3972 68.3049 36.595C68.6819 36.7797 69.0589 37.0368 69.4359 37.3665L69.3579 35.8037V32.2825H71.6005V46.2487H69.7479L69.5919 45.2002H69.5139C69.1629 45.5563 68.7534 45.8596 68.2854 46.1102C67.8173 46.3608 67.3233 46.4861 66.8033 46.4861ZM67.3493 44.6068C68.0644 44.6068 68.7339 44.2441 69.3579 43.5188V38.9887C69.0199 38.6853 68.6884 38.4743 68.3634 38.3556C68.0514 38.2369 67.7328 38.1776 67.4078 38.1776C66.7838 38.1776 66.2573 38.4545 65.8283 39.0084C65.3993 39.5623 65.1847 40.3536 65.1847 41.3823C65.1847 42.4373 65.3668 43.2418 65.7308 43.7957C66.1078 44.3364 66.6473 44.6068 67.3493 44.6068Z" fill="#090B37"/>
<path d="M77.8106 46.4861C76.6015 46.4861 75.6395 46.0443 74.9245 45.1607C74.2224 44.2639 73.8714 43.011 73.8714 41.4021C73.8714 40.6108 73.9819 39.8986 74.2029 39.2656C74.4369 38.6326 74.7424 38.0985 75.1195 37.6633C75.4965 37.2281 75.9255 36.8918 76.4065 36.6544C76.9005 36.417 77.4075 36.2983 77.9276 36.2983C78.4736 36.2983 78.9351 36.3972 79.3121 36.595C79.6891 36.7797 80.0661 37.0368 80.4432 37.3665L80.3652 35.8037V32.2825H82.6077V46.2487H80.7552L80.5992 45.2002H80.5212C80.1702 45.5563 79.7606 45.8596 79.2926 46.1102C78.8246 46.3608 78.3306 46.4861 77.8106 46.4861ZM78.3566 44.6068C79.0716 44.6068 79.7411 44.2441 80.3652 43.5188V38.9887C80.0271 38.6853 79.6956 38.4743 79.3706 38.3556C79.0586 38.2369 78.7401 38.1776 78.4151 38.1776C77.7911 38.1776 77.2645 38.4545 76.8355 39.0084C76.4065 39.5623 76.192 40.3536 76.192 41.3823C76.192 42.4373 76.374 43.2418 76.738 43.7957C77.115 44.3364 77.6546 44.6068 78.3566 44.6068Z" fill="#090B37"/>
<path fill-rule="evenodd" clip-rule="evenodd" d="M22.8789 39.7609C22.8789 30.6994 30.2247 23.3535 39.2863 23.3535H87.6082C96.6697 23.3535 104.016 30.6994 104.016 39.7609C104.016 48.8225 96.6698 56.1683 87.6082 56.1683H39.2863C30.2247 56.1683 22.8789 48.8225 22.8789 39.7609ZM38.9543 55.2568C30.3962 55.2568 23.4585 48.3191 23.4585 39.7609C23.4585 31.2028 30.3962 24.2651 38.9543 24.2651H87.9402C96.4983 24.2651 103.436 31.2028 103.436 39.7609C103.436 48.3191 96.4983 55.2568 87.9402 55.2568H38.9543Z" fill="#13171D"/>
<path d="M10.9984 3.0462L15.2952 23.8546C15.4545 24.6258 16.4762 24.8027 16.8855 24.1299L21.159 17.1035C21.2781 16.9078 21.4698 16.7671 21.6923 16.7122L30.4848 14.5438C31.2399 14.3575 31.3871 13.3482 30.7165 12.9541L12.2871 2.12316C11.6391 1.7423 10.8464 2.31004 10.9984 3.0462Z" fill="#13171D"/>
<path d="M26.1929 12.6875C26.8545 13.0766 26.7216 14.07 25.9811 14.2717L17.3561 16.6205L13.2081 23.3982C12.7961 24.0714 11.772 23.8889 11.6179 23.1148L7.71254 3.49245C7.56636 2.75795 8.35726 2.19598 9.00277 2.57569L26.1929 12.6875Z" fill="white"/>
<path fill-rule="evenodd" clip-rule="evenodd" d="M8.34188 1.65088C7.69637 1.27117 6.90546 1.83314 7.05165 2.56765L11.3917 24.374C11.5458 25.1482 12.5699 25.3307 12.9819 24.6574L17.4791 17.3092C17.5945 17.1206 17.7776 16.9832 17.9909 16.9251L27.1588 14.4284C27.8994 14.2268 28.0322 13.2334 27.3706 12.8442L8.34188 1.65088ZM25.0133 12.5303C25.6748 12.9195 25.542 13.9129 24.8014 14.1145L17.3836 16.1346C17.1703 16.1927 16.9872 16.3301 16.8718 16.5187L13.4324 22.1385C13.0204 22.8118 11.9963 22.6293 11.8422 21.8551L8.37156 4.41685C8.22537 3.68235 9.01628 3.12038 9.66179 3.50009L25.0133 12.5303Z" fill="#13171D"/>
</svg>
