<svg width="45" height="33" viewBox="0 0 45 33" fill="none" xmlns="http://www.w3.org/2000/svg">
<path d="M19.48 24.38C18.02 23.52 16.32 23 14.5 23C8.98 23 4.5 27.48 4.5 33H16.5C16.5 29.74 17.62 26.76 19.48 24.38Z" fill="#E9F7E2"/>
<path d="M15.48 20.38C14.02 19.52 12.32 19 10.5 19C4.98 19 0.5 23.48 0.5 29H12.5C12.5 25.74 13.62 22.76 15.48 20.38Z" stroke="#465B43" stroke-miterlimit="10" stroke-linecap="round" stroke-linejoin="round"/>
<path d="M14.5 23C17.2614 23 19.5 20.7614 19.5 18C19.5 15.2386 17.2614 13 14.5 13C11.7386 13 9.5 15.2386 9.5 18C9.5 20.7614 11.7386 23 14.5 23Z" fill="#E9F7E2"/>
<path d="M10.5 19C13.2614 19 15.5 16.7614 15.5 14C15.5 11.2386 13.2614 9 10.5 9C7.7386 9 5.5 11.2386 5.5 14C5.5 16.7614 7.7386 19 10.5 19Z" stroke="#465B43" stroke-miterlimit="10" stroke-linecap="round" stroke-linejoin="round"/>
<path d="M30.5 19C22.76 19 16.5 25.26 16.5 33C16.52 33 44.5 33 44.5 33C44.5 25.26 38.24 19 30.5 19Z" fill="#E9F7E2"/>
<path d="M26.5 15C18.76 15 12.5 21.26 12.5 29C12.52 29 40.5 29 40.5 29C40.5 21.26 34.24 15 26.5 15Z" stroke="#465B43" stroke-miterlimit="10" stroke-linecap="round" stroke-linejoin="round"/>
<path d="M30.5 19C34.366 19 37.5 15.866 37.5 12C37.5 8.134 34.366 5 30.5 5C26.634 5 23.5 8.134 23.5 12C23.5 15.866 26.634 19 30.5 19Z" fill="#E9F7E2"/>
<path d="M26.5 15C30.366 15 33.5 11.866 33.5 8C33.5 4.134 30.366 1 26.5 1C22.634 1 19.5 4.134 19.5 8C19.5 11.866 22.634 15 26.5 15Z" stroke="#465B43" stroke-miterlimit="10" stroke-linecap="round" stroke-linejoin="round"/>
</svg>
